<svg xmlns="http://www.w3.org/2000/svg" xmlns:xlink="http://www.w3.org/1999/xlink" width="300" zoomAndPan="magnify" viewBox="0 0 224.87999 225" height="300" preserveAspectRatio="xMidYMid meet" version="1.0"><defs><clipPath id="6c3516a032"><path d="M 18.550781 7 L 203 7 L 203 218 L 18.550781 218 Z M 18.550781 7 " clip-rule="nonzero"/></clipPath></defs><g clip-path="url(#6c3516a032)"><path fill="#ffffff" d="M 190.957031 91.03125 L 58.539062 11.386719 C 41.429688 0.0546875 18.585938 12.320312 18.585938 32.84375 L 18.585938 192.132812 C 18.585938 212.65625 41.429688 224.925781 58.539062 213.589844 L 74.632812 203.910156 C 66.996094 200.839844 61.589844 193.367188 61.589844 184.648438 L 61.589844 106.632812 C 61.589844 95.1875 70.90625 85.878906 82.359375 85.878906 C 86.332031 85.878906 90.21875 87.039062 93.605469 89.238281 L 158.484375 128.257812 L 158.628906 128.355469 C 164.441406 132.207031 167.910156 138.667969 167.910156 145.644531 C 167.910156 146.398438 167.863281 147.144531 167.785156 147.886719 L 190.957031 133.945312 C 206.320312 123.769531 206.320312 101.210938 190.957031 91.03125 " fill-opacity="1" fill-rule="nonzero"/></g><path fill="#a6a6a6" d="M 91.90625 156.648438 C 85.347656 156.648438 79.261719 151.4375 79.261719 144.023438 L 79.261719 94.398438 C 80.269531 94.140625 81.3125 94.007812 82.363281 94.007812 C 84.695312 94.007812 87.085938 94.667969 89.285156 96.121094 L 142.613281 128.199219 L 98.832031 154.53125 C 96.632812 155.988281 94.238281 156.648438 91.90625 156.648438 " fill-opacity="1" fill-rule="nonzero"/><path fill="#a6a6a6" d="M 79.261719 86.109375 C 80.246094 85.960938 81.25 85.882812 82.273438 85.878906 C 81.25 85.882812 80.246094 85.964844 79.261719 86.109375 M 82.285156 85.878906 C 82.289062 85.878906 82.292969 85.878906 82.296875 85.878906 C 82.292969 85.878906 82.289062 85.878906 82.285156 85.878906 M 82.316406 85.878906 C 82.320312 85.878906 82.324219 85.878906 82.328125 85.878906 C 82.324219 85.878906 82.320312 85.878906 82.316406 85.878906 " fill-opacity="1" fill-rule="nonzero"/><path fill="#205579" d="M 150.5 123.457031 L 93.605469 89.238281 C 90.21875 87.039062 86.332031 85.878906 82.359375 85.878906 C 82.347656 85.878906 82.335938 85.878906 82.328125 85.878906 C 82.324219 85.878906 82.320312 85.878906 82.316406 85.878906 C 82.3125 85.878906 82.304688 85.878906 82.296875 85.878906 C 82.292969 85.878906 82.289062 85.878906 82.285156 85.878906 C 82.28125 85.878906 82.277344 85.878906 82.273438 85.878906 C 81.25 85.882812 80.246094 85.960938 79.261719 86.109375 L 79.261719 66.003906 C 79.261719 58.589844 85.347656 53.375 91.90625 53.375 C 94.238281 53.375 96.632812 54.035156 98.832031 55.492188 L 163.691406 94.503906 C 171.214844 99.488281 171.214844 110.535156 163.691406 115.523438 L 150.5 123.457031 " fill-opacity="1" fill-rule="nonzero"/></svg>